Coordinates

Units are S.I. units (second, meters, Newtons, ...)
If the header above contains a line with 'inDegrees', this indicates whether rotational values are in degrees (yes) or radians (no).

inDegrees=no
nColumns=21
nRows=15
DataType=double
version=3
OpenSimVersion=4.6-2026-03-31-d6972f9e6
endheader
time	/jointset/ground_pelvis/pelvis_tilt/value	/jointset/ground_pelvis/pelvis_list/value	/jointset/ground_pelvis/pelvis_rotation/value	/jointset/ground_pelvis/pelvis_tx/value	/jointset/ground_pelvis/pelvis_ty/value	/jointset/ground_pelvis/pelvis_tz/value	/jointset/hip_r/hip_flexion_r/value	/jointset/hip_r/hip_adduction_r/value	/jointset/hip_r/hip_rotation_r/value	/jointset/walker_knee_r/knee_angle_r/value	/jointset/patellofemoral_r/knee_angle_r_beta/value	/jointset/ankle_r/ankle_angle_r/value	/jointset/subtalar_r/subtalar_angle_r/value	/jointset/hip_l/hip_flexion_l/value	/jointset/hip_l/hip_adduction_l/value	/jointset/hip_l/hip_rotation_l/value	/jointset/walker_knee_l/knee_angle_l/value	/jointset/patellofemoral_l/knee_angle_l_beta/value	/jointset/ankle_l/ankle_angle_l/value	/jointset/subtalar_l/subtalar_angle_l/value
139.996	-0.1519236951477918	-0.08385817490978252	1.50422471345078	0.8776989700000626	1.186553450000079	-0.9935452700000591	-0.2808841032754671	-0.1199148284287098	0.03810988415824931	0.1943439969685422	0.1943440000000106	-0.3483212929399842	-0.241755610931835	0.5425478456559744	0.1468440127964301	0.01024800840463252	1.070749868338841	1.070749870000075	-0.2145768090508943	-0.5254355845377486
140	-0.1530392039581252	-0.08734903241642347	1.504878378159789	0.8775777098915236	1.189226143317504	-0.994585311091165	-0.2851917286587835	-0.124257257814724	0.02691235133105256	0.192142756035481	0.1921427586201902	-0.3624402418312197	-0.220071874497318	0.5414153694552606	0.1495228030558504	0.01184295165544818	1.0288399272292	1.028839928611268	-0.2134816186665111	-0.5307785639849462
140.004	-0.1540512405878699	-0.09084286321237306	1.505508741323789	0.8774624216532665	1.191866164048298	-0.9956214536407787	-0.2894315017342383	-0.1284721715200575	0.01611860724624101	0.19010851310274	0.1901085152484279	-0.3762475871947262	-0.1987306682269311	0.5402233520357861	0.1520711907427568	0.01342697857661366	0.9869288352051497	0.9869288363186798	-0.2123633675304829	-0.5358316645332758
140.008	-0.1548591368518862	-0.09434125476052203	1.506093884928429	0.8773587805608752	1.194441747545722	-0.9966498945150799	-0.2935380733254438	-0.1324351439510471	0.006121553604831965	0.1884062962414791	0.1884062979628818	-0.3894424034669229	-0.178066335490674	0.5389147878569649	0.1543631950374576	0.01498825385575453	0.9450206394371775	0.9450206403022459	-0.2111931529752199	-0.5403140650325405
140.012	-0.1553677045911116	-0.09784311835391302	1.506614513288309	0.877271891657176	1.196922890159011	-0.9976670134989681	-0.297450937611627	-0.1360278025282202	-0.002707387971435167	0.1871971838679662	0.1871971851857804	-0.4017447018725402	-0.1583968823246847	0.5374374447960161	0.1562814226787365	0.01651327335082242	0.9031292143045537	0.9031292149485681	-0.209931263559145	-0.5439624298620327
140.016	-0.1554897248433965	-0.1013435517405005	1.507054935109803	0.8772060579269023	1.199282103355053	-0.9986694487900744	-0.3011165165448375	-0.1391406040406684	-0.0100283043530038	0.1866362866876149	0.1866362876276166	-0.4129048880764757	-0.140015989653954	0.5357455497892233	0.1577208176154681	0.01798640554825228	0.8612818747311271	0.8612818751862401	-0.2085237863697373	-0.5465381926823503
140.02	-0.1551482753355079	-0.1048328423228101	1.507403724235891	0.8771646021334835	1.201495041203088	-0.9996541620278865	-0.3044900019332579	-0.1416754575143949	-0.01554207472168556	0.1868706616076054	0.1868706622001141	-0.4227120229140323	-0.1231853248918742	0.533800715597982	0.1585919604161216	0.01938977004345427	0.8195217023495913	0.8195217026501782	-0.2069012503968173	-0.5478334313740566
140.024	-0.1542788816522291	-0.1082956202204688	1.507654033879721	0.8771497491480886	1.203540981977676	-1.000618494738438	-0.3075369366915847	-0.14354818183011	-0.01899869537278347	0.188037191185939	0.188037191465571	-0.4310005066157615	-0.1081273897845148	0.5315720600259241	0.1588238632242277	0.02070344480546922	0.7779085312796467	0.7779085314602483	-0.2049794537105994	-0.5476752667610406
140.028	-0.1528313807885183	-0.1117102477953093	1.507803559125628	0.8771625740295108	1.205403148230984	-1.001560214142267	-0.3102344076512737	-0.1446906727231577	-0.02020426383847048	0.1902605349667743	0.1902605349722303	-0.4376549260952679	-0.09501935127832499	0.5290356697948511	0.1583661061320414	0.0219059546182874	0.7365187361840821	0.7365187362779912	-0.2026622737921602	-0.5459287751452402
140.032	-0.1507714153383913	-0.115048500062247	1.50785415708736	0.8772030182089583	1.207068861920332	-1.00247754667425	-0.3125717683237885	-0.1450526883957359	-0.01902622920923558	0.1936512553834525	0.1936512551570247	-0.442612918339287	-0.08398829978104519	0.5261735913740309	0.1571902083026733	0.02297493716001485	0.6954440380859206	0.6954440381243718	-0.1998460587248821	-0.5424984766303361
140.036	-0.148081512509438	-0.1182755445727021	1.507811170773687	0.877269969701954	1.208529543111005	-1.003369198686779	-0.3145508799790967	-0.1446032066713366	-0.01539664212125978	0.1983041986382444	0.1983041982249151	-0.4458659610901333	-0.07510823000520013	0.5229725149116917	0.1552902072703583	0.02388788746483962	0.654789566344791	0.6547895663565764	-0.1964251409138346	-0.5373285619481637
140.04	-0.1447616204788106	-0.1213502910061444	1.507682556522128	0.8773613961843253	1.209780561885568	-1.004234360150136	-0.3161857836670148	-0.1433312088218479	-0.009313216990911085	0.2042972367008581	0.2042972361470951	-0.4474580716921775	-0.0683989841135163	0.5194224134884441	0.1526823795501674	0.02462297594241708	0.6146714683511647	0.6146714683624586	-0.1922979867800316	-0.5304020541828932
140.044	-0.1408289649006888	-0.1242261972460846	1.507477938140087	0.8774745156471576	1.210820955741535	-1.00507268640578	-0.3175016953420618	-0.1412457302008692	-0.0008381250929249296	0.2116904814258113	0.2116904807782213	-0.4474824860452873	-0.06382730246366591	0.5155154192964722	0.1494040513145102	0.02515997928996236	0.5752143501111512	0.5752143501454097	-0.187373506377721	-0.521739115165282
140.048	-0.1363172335279018	-0.1268525029219406	1.507207673548111	0.8776059905650899	1.211653035871292	-1.00588425874868	-0.3185333653422764	-0.1383751894266492	0.00990538998042244	0.2205260237227265	0.2205260230266992	-0.4460764780170191	-0.06130991741182239	0.5112450593784829	0.1455115932521652	0.02548127661055789	0.5365487260624668	0.5365487261403996	-0.1815771040714606	-0.5113947257677464
140.052	-0.1312752212783888	-0.1291757525178945	1.506881967977688	0.8777521351477332	1.212281914186957	-1.006669529327091	-0.3193229834101027	-0.1347661545211531	0.02273835174194455	0.2308281855279998	0.2308281848264927	-0.4434145757797785	-0.06071847335533556	0.50660582013865	0.1410778019004222	0.02557276584841135	0.4988085614377051	0.498808561577325	-0.1748561026299716	-0.4994559442024864
